<svg width="222" height="103" viewBox="0 0 222 103" fill="none" xmlns="http://www.w3.org/2000/svg">
<path d="M84.2677 70.24V91H81.5377V75.52L74.6377 91H72.7177L65.7877 75.49V91H63.0577V70.24H65.9977L73.6777 87.4L81.3577 70.24H84.2677ZM97.4775 72.31V79.3H105.097V81.55H97.4775V88.75H105.997V91H94.7475V70.06H105.997V72.31H97.4775ZM122.488 70.09C124.768 70.09 126.738 70.52 128.398 71.38C130.078 72.22 131.358 73.43 132.238 75.01C133.138 76.59 133.588 78.45 133.588 80.59C133.588 82.73 133.138 84.59 132.238 86.17C131.358 87.73 130.078 88.93 128.398 89.77C126.738 90.59 124.768 91 122.488 91H115.978V70.09H122.488ZM122.488 88.75C125.188 88.75 127.248 88.04 128.668 86.62C130.088 85.18 130.798 83.17 130.798 80.59C130.798 77.99 130.078 75.96 128.638 74.5C127.218 73.04 125.168 72.31 122.488 72.31H118.708V88.75H122.488ZM145.769 70.09V91H143.039V70.09H145.769ZM155.252 80.53C155.252 78.49 155.712 76.66 156.632 75.04C157.552 73.4 158.802 72.12 160.382 71.2C161.982 70.28 163.752 69.82 165.692 69.82C167.972 69.82 169.962 70.37 171.662 71.47C173.362 72.57 174.602 74.13 175.382 76.15H172.112C171.532 74.89 170.692 73.92 169.592 73.24C168.512 72.56 167.212 72.22 165.692 72.22C164.232 72.22 162.922 72.56 161.762 73.24C160.602 73.92 159.692 74.89 159.032 76.15C158.372 77.39 158.042 78.85 158.042 80.53C158.042 82.19 158.372 83.65 159.032 84.91C159.692 86.15 160.602 87.11 161.762 87.79C162.922 88.47 164.232 88.81 165.692 88.81C167.212 88.81 168.512 88.48 169.592 87.82C170.692 87.14 171.532 86.17 172.112 84.91H175.382C174.602 86.91 173.362 88.46 171.662 89.56C169.962 90.64 167.972 91.18 165.692 91.18C163.752 91.18 161.982 90.73 160.382 89.83C158.802 88.91 157.552 87.64 156.632 86.02C155.712 84.4 155.252 82.57 155.252 80.53ZM197.656 86.35H188.536L186.856 91H183.976L191.536 70.21H194.686L202.216 91H199.336L197.656 86.35ZM196.876 84.13L193.096 73.57L189.316 84.13H196.876ZM214.091 88.78H221.411V91H211.361V70.09H214.091V88.78Z" fill="#444444"/>
<path d="M73.2845 44.9481H90.7038V55.2131H59.9867V0.62212H73.2845V44.9481Z" fill="#444444"/>
<path fill-rule="evenodd" clip-rule="evenodd" d="M147.884 13.7644C149.75 14.6976 151.176 16.0714 152.161 17.8859H166.859C165.407 12.2869 162.426 7.9061 157.916 4.74366C153.457 1.58122 147.962 0 141.43 0C136.038 0 131.242 1.19239 127.043 3.57718C122.844 5.91013 119.552 9.20218 117.167 13.4533C114.834 17.6526 113.668 22.4481 113.668 27.8398C113.668 33.2315 114.834 38.027 117.167 42.2263C119.552 46.4256 122.844 49.7177 127.043 52.1025C131.294 54.4354 136.116 55.6019 141.507 55.6019C146.07 55.6019 150.165 54.7206 153.794 52.9579C157.423 51.1952 160.404 48.8882 162.737 46.0368C165.122 43.1854 166.807 40.1008 167.792 36.7828V24.4182H138.863V34.2165H155.738C154.701 37.3271 153.043 39.7119 150.761 41.3709C148.532 43.0299 145.784 43.8594 142.518 43.8594C137.749 43.8594 133.99 42.4596 131.242 39.6601C128.547 36.8087 127.199 32.8686 127.199 27.8398C127.199 23.1221 128.495 19.3635 131.087 16.5639C133.679 13.7125 137.127 12.2869 141.43 12.2869C143.918 12.2869 146.07 12.7794 147.884 13.7644ZM208.702 55.2131H222V0.62212H208.702V34.4498L186.461 0.62212H173.164V55.2131H186.461V21.5409L208.702 55.2131Z" fill="#444444"/>
<path d="M95.216 21.6024V55.2361H108.514V17.3276L95.216 21.6024Z" fill="#F47521"/>
<path d="M108.28 4.51317L94.9824 8.78793V0.622112H108.28V4.51317Z" fill="#429FDD"/>
<path d="M23.3432 45.5702H37.5604L40.8265 55.2131H54.902L48.4883 37.487L23.3432 45.5702Z" fill="#444444"/>
<path d="M0.87575 52.7927L16.4337 47.7914L13.9199 55.2131H0L0.87575 52.7927Z" fill="#444444"/>
<path d="M19.7523 0.62212L6.11315 38.3176L21.3124 33.4316L27.3732 15.3197L32.3079 29.897L44.3423 26.0284L35.1497 0.62212H19.7523Z" fill="#444444"/>
<path d="M0 82L55 80V84L0 82Z" fill="#429FDD"/>
</svg>
