<?xml version="1.0" encoding="utf-8"?>
<!-- Generator: Adobe Illustrator 24.3.0, SVG Export Plug-In . SVG Version: 6.00 Build 0)  -->
<svg version="1.1" id="Layer_1" xmlns="http://www.w3.org/2000/svg" xmlns:xlink="http://www.w3.org/1999/xlink" x="0px" y="0px"
	 viewBox="0 0 24 24" style="enable-background:new 0 0 24 24;" xml:space="preserve">
<style type="text/css">
	.st0{fill-rule:evenodd;clip-rule:evenodd;fill:#010101;fill-opacity:0.5;}
</style>
<path class="st0" d="M10.74,1.92C12,0.69,13.69,0,15.47,0h3.34c0.61,0,1.11,0.49,1.11,1.09v4.36c0,0.6-0.5,1.09-1.11,1.09h-3.34
	v2.18h3.34c0.34,0,0.67,0.15,0.88,0.42c0.21,0.26,0.29,0.61,0.2,0.94l-1.11,4.36c-0.12,0.49-0.57,0.83-1.08,0.83h-2.23v7.64
	c0,0.6-0.5,1.09-1.11,1.09H9.9c-0.61,0-1.11-0.49-1.11-1.09v-7.64H6.56c-0.61,0-1.11-0.49-1.11-1.09V9.82c0-0.6,0.5-1.09,1.11-1.09
	h2.23V6.55C8.79,4.81,9.49,3.14,10.74,1.92z M15.47,2.18c-1.18,0-2.31,0.46-3.15,1.28c-0.83,0.82-1.3,1.93-1.3,3.09v3.27
	c0,0.6-0.5,1.09-1.11,1.09H7.67v2.18H9.9c0.61,0,1.11,0.49,1.11,1.09v7.64h2.23v-7.64c0-0.6,0.5-1.09,1.11-1.09h2.47l0.56-2.18
	h-3.03c-0.61,0-1.11-0.49-1.11-1.09V6.55c0-0.58,0.23-1.13,0.65-1.54c0.42-0.41,0.98-0.64,1.57-0.64h2.23V2.18H15.47z"/>
</svg>
