<?xml version="1.0" encoding="utf-8"?>
<!-- Generator: Adobe Illustrator 24.3.0, SVG Export Plug-In . SVG Version: 6.00 Build 0)  -->
<svg version="1.1" id="Layer_1" xmlns="http://www.w3.org/2000/svg" xmlns:xlink="http://www.w3.org/1999/xlink" x="0px" y="0px"
	 viewBox="0 0 24 24" style="enable-background:new 0 0 24 24;" xml:space="preserve">
<style type="text/css">
	.st0{fill-rule:evenodd;clip-rule:evenodd;fill:#010101;fill-opacity:0.5;}
</style>
<g>
	<path class="st0" d="M17.45,0H6.55C2.93,0,0,2.93,0,6.55v10.91C0,21.07,2.93,24,6.55,24h10.91c3.61,0,6.55-2.93,6.55-6.55V6.55
		C24,2.93,21.07,0,17.45,0z M21.82,17.45c0,2.41-1.95,4.36-4.36,4.36H6.55c-2.41,0-4.36-1.95-4.36-4.36V6.55
		c0-2.41,1.95-4.36,4.36-4.36h10.91c2.41,0,4.36,1.95,4.36,4.36V17.45z"/>
	<path class="st0" d="M15.9,8.1c-0.83-0.83-1.9-1.37-3.06-1.54c-1.13-0.17-2.29,0.03-3.31,0.55C8.52,7.64,7.69,8.48,7.17,9.5
		c-0.52,1.02-0.7,2.19-0.51,3.32c0.18,1.13,0.72,2.18,1.53,2.99c0.81,0.81,1.86,1.35,2.99,1.53c1.13,0.18,2.29,0,3.32-0.51
		c1.02-0.52,1.86-1.34,2.39-2.36c0.53-1.02,0.72-2.18,0.55-3.31C17.27,10,16.73,8.92,15.9,8.1z M14.95,13.46
		c-0.32,0.61-0.82,1.11-1.43,1.42c-0.61,0.31-1.31,0.42-1.99,0.31c-0.68-0.11-1.31-0.43-1.79-0.92c-0.49-0.49-0.81-1.11-0.92-1.79
		c-0.11-0.68,0-1.38,0.31-1.99c0.31-0.61,0.8-1.12,1.42-1.43c0.61-0.32,1.31-0.43,1.99-0.33c0.69,0.1,1.34,0.43,1.83,0.92
		c0.5,0.5,0.82,1.14,0.92,1.83C15.39,12.15,15.27,12.85,14.95,13.46z"/>
	<path class="st0" d="M18.01,4.91H18c-0.6,0-1.09,0.49-1.09,1.09S17.4,7.09,18,7.09h0.01c0.6,0,1.09-0.49,1.09-1.09
		S18.61,4.91,18.01,4.91z"/>
</g>
</svg>
