<?xml version="1.0" encoding="utf-8"?>
<!-- Generator: Adobe Illustrator 24.3.0, SVG Export Plug-In . SVG Version: 6.00 Build 0)  -->
<svg version="1.1" id="Layer_1" xmlns="http://www.w3.org/2000/svg" xmlns:xlink="http://www.w3.org/1999/xlink" x="0px" y="0px"
	 viewBox="0 0 24 24" style="enable-background:new 0 0 24 24;" xml:space="preserve">
<style type="text/css">
	.st0{fill-rule:evenodd;clip-rule:evenodd;fill:#010101;fill-opacity:0.5;}
</style>
<g>
	<path class="st0" d="M21.76,9.2c-1.43-1.5-3.37-2.34-5.4-2.34S12.4,7.7,10.96,9.2c-1.43,1.5-2.24,3.54-2.24,5.66v8
		c0,0.63,0.49,1.14,1.09,1.14h4.36c0.6,0,1.09-0.51,1.09-1.14v-8c0-0.3,0.11-0.59,0.32-0.81c0.2-0.21,0.48-0.33,0.77-0.33
		s0.57,0.12,0.77,0.33c0.2,0.21,0.32,0.51,0.32,0.81v8c0,0.63,0.49,1.14,1.09,1.14h4.36c0.6,0,1.09-0.51,1.09-1.14v-8
		C24,12.74,23.2,10.7,21.76,9.2z M21.82,21.71h-2.18v-6.86c0-0.91-0.34-1.78-0.96-2.42c-0.61-0.64-1.45-1-2.31-1
		c-0.87,0-1.7,0.36-2.31,1c-0.61,0.64-0.96,1.51-0.96,2.42v6.86h-2.18v-6.86c0-1.52,0.57-2.97,1.6-4.04
		c1.02-1.07,2.41-1.67,3.86-1.67s2.83,0.6,3.86,1.67c1.02,1.07,1.6,2.53,1.6,4.04V21.71z"/>
	<path class="st0" d="M5.45,8H1.09C0.49,8,0,8.51,0,9.14v13.71C0,23.49,0.49,24,1.09,24h4.36c0.6,0,1.09-0.51,1.09-1.14V9.14
		C6.55,8.51,6.06,8,5.45,8z M4.36,21.71H2.18V10.29h2.18V21.71z"/>
	<path class="st0" d="M3.27,0C1.47,0,0,1.54,0,3.43s1.47,3.43,3.27,3.43s3.27-1.54,3.27-3.43S5.08,0,3.27,0z M3.27,4.57
		c-0.6,0-1.09-0.51-1.09-1.14s0.49-1.14,1.09-1.14S4.36,2.8,4.36,3.43S3.88,4.57,3.27,4.57z"/>
</g>
</svg>
