<?xml version="1.0" encoding="utf-8"?>
<!-- Generator: Adobe Illustrator 24.3.0, SVG Export Plug-In . SVG Version: 6.00 Build 0)  -->
<svg version="1.1" id="Layer_1" xmlns="http://www.w3.org/2000/svg" xmlns:xlink="http://www.w3.org/1999/xlink" x="0px" y="0px"
	 viewBox="0 0 24 24" style="enable-background:new 0 0 24 24;" xml:space="preserve">
<style type="text/css">
	.st0{fill-rule:evenodd;clip-rule:evenodd;fill:#010101;fill-opacity:0.5;}
</style>
<path class="st0" d="M14.53,0.43c1.05-0.48,2.2-0.56,3.28-0.24c0.87,0.26,1.66,0.77,2.32,1.48c0.81-0.36,1.58-0.85,2.29-1.45
	c0.34-0.29,0.79-0.29,1.14-0.01c0.34,0.28,0.51,0.79,0.41,1.28c-0.34,1.69-1.03,3.25-1.99,4.54C21.99,6.24,22,6.43,22,6.63v0
	c0,7.34-2.94,12.73-7.16,15.43c-4.19,2.69-9.55,2.66-14.33-0.54c-0.4-0.27-0.6-0.84-0.48-1.38c0.13-0.54,0.54-0.9,1-0.88
	c1.69,0.08,3.36-0.32,4.87-1.16c-1.5-1.12-2.59-2.44-3.34-3.87c-1-1.91-1.38-3.93-1.45-5.74C1.06,6.68,1.3,5.05,1.55,3.89
	C1.67,3.3,1.8,2.82,1.91,2.48C1.96,2.32,2,2.18,2.03,2.09c0.02-0.05,0.03-0.08,0.04-0.11l0.01-0.03l0-0.01
	C2.09,1.92,2.1,1.9,2.11,1.88L3,2.42l0.82-0.69c0.92,1.57,2.14,2.84,3.56,3.7C8.51,6.12,9.74,6.52,11,6.64
	C10.99,5.3,11.32,4,11.95,2.89C12.58,1.77,13.48,0.92,14.53,0.43z M3.4,4.88c-0.18,0.96-0.33,2.19-0.28,3.5
	c0.06,1.5,0.37,3.09,1.14,4.56c0.77,1.47,2.05,2.9,4.14,4.02c0.33,0.18,0.56,0.56,0.59,0.99c0.03,0.44-0.13,0.86-0.43,1.1
	c-1.11,0.91-2.33,1.59-3.6,2.03c3.17,0.97,6.35,0.51,8.94-1.16c3.53-2.26,6.09-6.8,6.09-13.3c0-0.26-0.02-0.52-0.06-0.77
	c-0.06-0.39,0.04-0.8,0.28-1.08c0.22-0.26,0.43-0.55,0.62-0.84c-0.23,0.1-0.46,0.19-0.69,0.28c-0.38,0.14-0.78-0.01-1.04-0.36
	c-0.47-0.65-1.09-1.11-1.78-1.31c-0.69-0.21-1.42-0.16-2.09,0.15C14.57,2.99,14,3.53,13.6,4.24c-0.4,0.71-0.61,1.55-0.6,2.41l0,0.02
	h0v1.2c0,0.65-0.43,1.19-0.97,1.2C10.1,9.13,8.2,8.62,6.48,7.58C5.34,6.89,4.3,5.97,3.4,4.88z"/>
</svg>
